<svg xmlns="http://www.w3.org/2000/svg" width="800" height="500" viewBox="0 0 800 500">
  <rect width="800" height="500" fill="#161b22"/>
  <rect width="800" height="36" fill="#0d1117"/>
  <circle cx="24" cy="18" r="6" fill="#f78166"/>
  <circle cx="44" cy="18" r="6" fill="#e3b341"/>
  <circle cx="64" cy="18" r="6" fill="#3fb950"/>
  <rect x="300" y="10" width="200" height="16" rx="8" fill="#21262d"/>
  <rect x="40" y="80" width="320" height="20" rx="6" fill="#58a6ff" opacity="0.7"/>
  <rect x="40" y="120" width="560" height="14" rx="6" fill="#30363d"/>
  <rect x="40" y="148" width="480" height="14" rx="6" fill="#30363d"/>
  <rect x="40" y="176" width="520" height="14" rx="6" fill="#30363d"/>
  <rect x="40" y="230" width="720" height="180" rx="10" fill="#0d1117" stroke="#30363d"/>
  <rect x="70" y="260" width="140" height="14" rx="4" fill="#f78166"/>
  <rect x="220" y="260" width="200" height="14" rx="4" fill="#30363d"/>
  <rect x="70" y="290" width="240" height="14" rx="4" fill="#58a6ff" opacity="0.8"/>
  <rect x="70" y="320" width="180" height="14" rx="4" fill="#3fb950" opacity="0.8"/>
  <rect x="70" y="350" width="300" height="14" rx="4" fill="#30363d"/>
  <text x="400" y="460" font-family="Segoe UI, sans-serif" font-size="22" fill="#9da7b3" text-anchor="middle">Replace with your Assignment 1 screenshot</text>
</svg>
